<svg width="27" height="26" viewBox="0 0 27 26" fill="none" xmlns="http://www.w3.org/2000/svg">
<path d="M4.11381 20.365C3.75453 20.2222 3.43379 19.9971 3.17742 19.7077C2.92106 19.4184 2.73622 19.0728 2.63781 18.699C2.20472 16.7539 2.01128 14.7631 2.06181 12.771C2.01157 10.7813 2.20467 8.79285 2.63681 6.84998C2.7333 6.47666 2.91601 6.13119 3.17028 5.84133C3.42454 5.55146 3.74325 5.32529 4.10081 5.18098C7.48781 3.88698 12.8348 3.84998 13.4338 3.84998H13.4718C14.0998 3.84998 19.4468 3.88698 22.8218 5.17598C23.1809 5.31892 23.5014 5.54412 23.7575 5.83347C24.0137 6.12282 24.1984 6.46825 24.2968 6.84198C24.7299 8.78709 24.9233 10.7779 24.8728 12.77C24.9233 14.761 24.7302 16.7508 24.2978 18.695C24.2007 19.0675 24.0177 19.4122 23.7635 19.7013C23.5093 19.9904 23.1909 20.216 22.8338 20.36C19.4468 21.654 14.0998 21.691 13.5008 21.691C12.8358 21.692 7.48781 21.65 4.11381 20.365ZM4.69481 6.69898C4.57739 6.74789 4.47293 6.82338 4.38964 6.91951C4.30635 7.01564 4.2465 7.12979 4.21481 7.25298C3.81684 9.06423 3.64087 10.9172 3.69081 12.771C3.64085 14.6258 3.81715 16.4798 4.21581 18.292C4.24829 18.4169 4.30963 18.5325 4.39491 18.6294C4.48019 18.7263 4.58702 18.8019 4.70681 18.85C7.84981 20.05 13.2068 20.065 13.4338 20.065C13.7268 20.065 19.0848 20.051 22.2398 18.846C22.3572 18.7971 22.4617 18.7216 22.545 18.6254C22.6283 18.5293 22.6881 18.4152 22.7198 18.292C23.1178 16.4804 23.2938 14.6271 23.2438 12.773C23.2939 10.9175 23.1176 9.0628 22.7188 7.24998C22.6858 7.12562 22.6243 7.01068 22.539 6.91433C22.4538 6.81797 22.3472 6.74286 22.2278 6.69498C19.0848 5.49498 13.7278 5.47998 13.5008 5.47998H13.4338C13.2078 5.47898 7.84981 5.49298 4.69481 6.69898ZM11.4538 16.75C11.3239 16.6804 11.2153 16.5768 11.1396 16.4504C11.0639 16.324 11.0239 16.1793 11.0238 16.032V9.51198C11.0236 9.36451 11.0635 9.21976 11.1392 9.09319C11.2149 8.96662 11.3235 8.86299 11.4535 8.79337C11.5835 8.72375 11.73 8.69075 11.8773 8.69791C12.0246 8.70506 12.1672 8.75209 12.2898 8.83398L17.1778 12.093C17.2894 12.1673 17.3809 12.268 17.4442 12.3862C17.5075 12.5044 17.5406 12.6364 17.5406 12.7705C17.5406 12.9045 17.5075 13.0365 17.4442 13.1547C17.3809 13.2729 17.2894 13.3737 17.1778 13.448L12.2898 16.707C12.1671 16.7886 12.0246 16.8354 11.8773 16.8425C11.7301 16.8495 11.5838 16.8165 11.4538 16.747V16.75ZM12.6538 14.51L15.2538 12.773L12.6538 11.037V14.51Z" fill="#005CFF"/>
</svg>
